PathFileType	4	(X/Y/Z)	Patient4_TMGait_0pt2_02_right_24.trc.trc
DataRate	CameraRate	NumFrames	NumMarkers	Units	OrigDataRate	OrigDataStartFrame	OrigNumFrames
45.307443365696	45.307443365696	5	33	mm	45.307443365696	18	       141
Frame#	Time	R.Midfoot.Superior			Sacral			L.Shoulder			Chest			R.Shoulder			Neck			R.ASIS			L.ASIS			R.Thigh.Superior			R.Thigh.Lateral			R.Thigh.Inferior			R.Patella			L.Thigh.Superior			L.Thigh.Lateral			L.Thigh.Inferior			L.Patella			L.Shank.Superior			L.Shank.Lateral			L.Shank.Inferior			R.Shank.Superior			R.Shank.Lateral			R.Shank.Inferior			R.Heel			R.Midfoot.Lateral			R.Toe			L.Heel			L.Midfoot.Lateral			L.Midfoot.Superior			L.Toe			L.Elbow			L.Wrist			R.Elbow			R.Wrist			
		X1	Y1	Z1	X2	Y2	Z2	X3	Y3	Z3	X4	Y4	Z4	X5	Y5	Z5	X6	Y6	Z6	X7	Y7	Z7	X8	Y8	Z8	X9	Y9	Z9	X10	Y10	Z10	X11	Y11	Z11	X12	Y12	Z12	X13	Y13	Z13	X14	Y14	Z14	X15	Y15	Z15	X16	Y16	Z16	X17	Y17	Z17	X18	Y18	Z18	X19	Y19	Z19	X20	Y20	Z20	X21	Y21	Z21	X22	Y22	Z22	X23	Y23	Z23	X24	Y24	Z24	X25	Y25	Z25	X26	Y26	Z26	X27	Y27	Z27	X28	Y28	Z28	X29	Y29	Z29	X30	Y30	Z30	X31	Y31	Z31	X32	Y32	Z32	X33	Y33	Z33	

18	53.185214285714	1285.953996759731	116.214016091505	581.834214530207	1008.712492764625	1007.759215340697	396.474934862690	1234.925921160202	1440.906787883714	264.477243123429	1303.221115261531	1354.750069067818	434.240687126410	1194.874939517561	1420.978293063509	595.250939461606	1192.285685490478	1491.698702272565	421.499900620891	1223.339159512013	939.677570524831	541.401958013986	1240.995696465840	958.293540717224	266.605765273737	1302.626327765704	764.076672485493	505.153011453155	1254.549584366627	646.320539913967	578.004130975840	1335.271969631142	603.049660819364	493.625489308352	1361.405220690173	506.489969086928	513.884679536677	1279.816836131856	741.925252224184	312.420045180071	1197.409807490665	621.009498803084	247.307874623639	1269.286252981558	546.956564286245	326.949913127325	1267.276908783826	474.944427550032	336.579196184474	1227.824768912283	403.189388635422	324.666917917266	1126.967758778542	300.374739210087	270.475028928370	1155.465212054658	184.999405426177	345.369647948903	1316.144079078925	421.485870324278	532.625863588431	1231.585362012661	339.721575289084	607.870592558370	1261.015790956300	232.613394394798	560.713864726736	1108.415595430620	82.088817082405	553.260760223872	1193.868926405987	63.707889006930	622.247009218169	1398.131416340519	53.832620219468	604.073048955956	1009.088273480572	39.580588344687	383.624384885378	1082.036949890846	36.370805547360	302.399236345129	1166.825703937134	96.102441316627	329.947529352039	1293.851059626124	42.497699956863	297.811063230920	1376.612342218044	1159.323428356966	97.656602319952	1630.742356390499	1153.366666209514	147.190319997959	1030.593122661652	1103.958809306424	666.157858020615	980.877509074690	847.665087480090	661.140068789997	
19	53.207285714286	1305.696939483169	112.683530484012	586.200482811087	1009.045317620480	1009.690735804812	397.179364780258	1238.971726090214	1441.760900703774	267.637481937840	1304.044249610837	1355.844519721758	438.719258289389	1193.227219003097	1423.323681706811	597.570778657941	1193.845492000662	1492.977933377244	423.765589665058	1221.219878536951	940.782604593115	545.481143027835	1242.862004211641	958.952952843041	270.662404958332	1298.476033436225	763.642495853206	511.450216846971	1247.805843827947	646.816340785019	584.369224776046	1328.933476706002	602.669333587007	501.269076839647	1355.034344611050	509.044861325045	521.058323273864	1277.526118948873	741.339136939281	316.277881832918	1194.087553023822	622.102753786155	248.932551862939	1263.826996389059	546.663904170877	328.860397361829	1260.700693592170	475.160465709138	338.094051595740	1221.641297070575	403.732501232996	325.822210005252	1121.610822497011	300.723302992807	270.871674508972	1150.411262261659	185.339810750824	345.696463556809	1315.135672022027	422.633632722993	539.089313428157	1236.774395227015	334.574821954486	614.841043295225	1272.625470349700	229.515008905419	566.288925735965	1128.742487898840	70.165411393554	558.941519035131	1216.105876948246	54.983906503766	626.837540194458	1421.548442079298	55.154632218729	606.493181747308	1004.569636894951	39.517476724468	383.514943163551	1077.511381565711	36.312544047896	302.327709509578	1162.257567038083	96.101286806955	329.945975531277	1289.323416160048	42.587531574690	297.867957411597	1384.330649641918	1163.150708980644	101.096921679816	1637.368107080367	1167.867220455089	152.875675972534	1020.470853079710	1111.008770223019	665.188316392439	966.180151953244	855.754577092290	659.007945712241	
20	53.229357142857	1322.087844174950	109.864860774381	589.950533102214	1009.431582909673	1011.349215271327	398.485639342274	1242.877997564182	1442.152428693118	271.044298120970	1304.976030334933	1356.624383283924	443.366046332432	1192.007914926875	1425.475423844563	600.172725468814	1195.520702299987	1493.979143983137	426.265995243636	1219.146876458995	941.499993605279	549.982291218217	1244.696340016408	959.325546776283	275.227578595705	1294.395030467059	762.890218196571	518.116498467352	1241.017201472994	646.798266095631	590.615875261832	1322.801308058222	601.991830307690	508.884537417643	1348.394983956945	511.016135385831	527.954188129541	1275.401803081116	740.619232072372	320.394476238010	1190.986875919752	623.077016808370	250.862202260850	1258.668888753431	546.264674171978	330.979059431698	1254.445789033830	475.257721688423	339.791210648765	1215.747295859409	404.166789790905	327.150549746738	1116.452990365147	301.081916003804	271.391518088077	1145.468779970574	185.633409805244	346.079864905439	1313.405991767482	423.444571102958	545.190200810922	1240.611532157028	330.095330081665	621.172290470953	1281.967931419717	227.156326632185	571.282262430163	1145.808167920965	61.141983943166	563.637469299241	1234.503941413971	48.317341653726	630.658640472046	1440.529086053864	55.963940550231	608.574759389084	1000.047411813786	39.482608704543	383.415443727848	1072.981598926086	36.273668312340	302.266457036159	1157.687785640732	96.101892738295	329.969980396403	1284.786961156349	42.661643179988	297.938658768165	1391.388325985793	1165.856918458975	105.261597868132	1643.016874686082	1180.476884393645	159.093718167253	1012.961371774021	1116.825566107937	664.707509348433	956.381613000395	862.084569783012	657.544365290145	
21	53.251428571429	1334.667774826584	107.623656870678	592.912982271216	1009.898576315084	1012.679931065607	400.411352402804	1246.590283442082	1442.064711982467	274.730694973047	1306.022953429477	1357.052805272699	448.196271593897	1191.237978053520	1427.322705665186	603.124492813320	1197.296113186479	1494.655169783728	429.066907022986	1217.216248746864	941.776897402981	554.860665847983	1246.496928271120	959.409591379585	280.259862731115	1290.582026561324	761.843847389359	524.991938603917	1234.446965325225	646.242093727880	596.522854204669	1317.154035241689	601.046309672133	516.226243776980	1341.797709681832	512.334825694849	534.341989133919	1273.535231969909	739.747381851061	324.684318138886	1188.182084644369	623.892156726606	253.084959293001	1253.926383081714	545.735619934689	333.284723173319	1248.640869038144	475.202690046412	341.665029286101	1210.257715632627	404.470308874195	328.635281968260	1111.564066594453	301.446181565874	272.034162630998	1140.673089034639	185.867427381264	346.512736031154	1311.096677401364	423.832464666189	550.731802089510	1242.970305805886	326.260627445893	626.625515064650	1288.801365935766	225.367776229572	575.494131807768	1159.045770079636	54.800429092990	567.154119271251	1248.520771655842	43.577699983054	633.587335263805	1454.714736572552	56.143485252911	610.300409434468	995.523182136643	39.487431699858	383.326458538040	1068.451402795567	36.262526485240	302.214843890616	1153.123392121222	96.111823593264	330.014742560043	1280.244393310936	42.717745630374	298.019550299333	1397.674279293390	1167.329853024169	110.162349752547	1647.727561676883	1190.947264297041	165.817174359117	1007.975832968515	1121.195877613047	664.909006811865	951.332190871291	866.414060343597	656.990303662269	
22	53.273500000000	1343.257993284841	105.815391531224	594.989414461362	1010.476127149065	1013.674624124133	402.961703839029	1250.070384064749	1441.527151253992	278.727130820161	1307.191114919148	1357.135230542402	453.228470443444	1190.920059292683	1428.804446925077	606.482261628288	1199.154283718207	1494.998869567070	432.227282254433	1215.522050081440	941.609859337968	560.073551493875	1248.266856875535	959.239068829241	285.712496030178	1287.194527500705	760.536419901925	531.909652507616	1228.321270257818	645.177414918822	601.932376896932	1312.180314195537	599.868516530349	523.090326093830	1335.504647086620	512.973984189383	540.063983155227	1271.977987807230	738.721079431603	329.076785455948	1185.693946019815	624.536826231248	255.585569760296	1249.641978535096	545.072504683303	335.755985467509	1243.334418078727	474.987693437524	343.706555584963	1205.216513917454	404.644247700001	330.258776012430	1106.963703198032	301.821198386103	272.794882237363	1136.032447508671	186.043245828782	346.986651860967	1308.353649415942	423.741643497905	555.586449427144	1243.831942380251	322.987956423218	631.072273719335	1293.062287556866	223.940259553036	578.808258554882	1168.208241692231	50.702913902795	569.450988384772	1257.987680995961	40.496997873910	635.605691990644	1464.111188340263	55.707444957911	611.657821788745	990.998061058119	39.539389854899	383.246311001314	1063.923650848394	36.285500376904	302.171899944264	1148.569596703695	96.139983977721	330.073057911101	1275.697277363803	42.758125593752	298.106440745478	1403.086872656084	1167.521681963455	115.792813594490	1651.555250326287	1199.060957202923	173.012570888421	1005.357188475647	1124.025838336725	665.949411446049	950.789744681653	868.691150464524	657.587255220213	
